<mxfile host="app.diagrams.net" modified="2021-09-23T09:35:33.903Z" agent="5.0 (Windows NT 10.0; Win64; x64) AppleWebKit/537.36 (KHTML, like Gecko) Chrome/93.0.4577.63 Safari/537.36" etag="6qZ41enZV2YFXg429Pfs" version="15.3.0" type="github">
  <diagram id="-WQpHFZ_1k7MkoKrfund" name="Page-1">
    <mxGraphModel dx="1422" dy="762" grid="1" gridSize="10" guides="1" tooltips="1" connect="1" arrows="1" fold="1" page="1" pageScale="1" pageWidth="1100" pageHeight="850" math="0" shadow="0">
      <root>
        <mxCell id="0" />
        <mxCell id="1" parent="0" />
        <mxCell id="qx2Xlpg36AhPsff7omIO-1" value="H5" style="rounded=1;whiteSpace=wrap;html=1;fontSize=20;" vertex="1" parent="1">
          <mxGeometry x="100" y="140" width="340" height="80" as="geometry" />
        </mxCell>
        <mxCell id="qx2Xlpg36AhPsff7omIO-2" value="Native" style="rounded=1;whiteSpace=wrap;html=1;fontSize=20;" vertex="1" parent="1">
          <mxGeometry x="100" y="450" width="340" height="80" as="geometry" />
        </mxCell>
        <mxCell id="qx2Xlpg36AhPsff7omIO-3" value="JSBridge 交换" style="rounded=0;whiteSpace=wrap;html=1;fontSize=20;" vertex="1" parent="1">
          <mxGeometry x="20" y="300" width="180" height="70" as="geometry" />
        </mxCell>
        <mxCell id="qx2Xlpg36AhPsff7omIO-4" value="webview&amp;nbsp;&lt;br style=&quot;font-size: 20px;&quot;&gt;bridge post" style="rounded=0;whiteSpace=wrap;html=1;fontSize=20;" vertex="1" parent="1">
          <mxGeometry x="430" y="300" width="180" height="70" as="geometry" />
        </mxCell>
        <mxCell id="qx2Xlpg36AhPsff7omIO-5" value="" style="endArrow=classic;html=1;entryX=0.5;entryY=0;entryDx=0;entryDy=0;fontSize=20;" edge="1" parent="1" source="qx2Xlpg36AhPsff7omIO-1" target="qx2Xlpg36AhPsff7omIO-3">
          <mxGeometry width="50" height="50" relative="1" as="geometry">
            <mxPoint x="70" y="270" as="sourcePoint" />
            <mxPoint x="120" y="220" as="targetPoint" />
          </mxGeometry>
        </mxCell>
        <mxCell id="qx2Xlpg36AhPsff7omIO-6" value="" style="endArrow=classic;html=1;entryX=0.544;entryY=1.029;entryDx=0;entryDy=0;entryPerimeter=0;fontSize=20;" edge="1" parent="1" source="qx2Xlpg36AhPsff7omIO-2" target="qx2Xlpg36AhPsff7omIO-3">
          <mxGeometry width="50" height="50" relative="1" as="geometry">
            <mxPoint x="110" y="440" as="sourcePoint" />
            <mxPoint x="160" y="390" as="targetPoint" />
          </mxGeometry>
        </mxCell>
        <mxCell id="qx2Xlpg36AhPsff7omIO-7" value="" style="endArrow=classic;html=1;entryX=0.433;entryY=0;entryDx=0;entryDy=0;entryPerimeter=0;exitX=0.856;exitY=1.025;exitDx=0;exitDy=0;exitPerimeter=0;fontSize=20;" edge="1" parent="1" source="qx2Xlpg36AhPsff7omIO-1" target="qx2Xlpg36AhPsff7omIO-4">
          <mxGeometry width="50" height="50" relative="1" as="geometry">
            <mxPoint x="400" y="280" as="sourcePoint" />
            <mxPoint x="450" y="230" as="targetPoint" />
          </mxGeometry>
        </mxCell>
        <mxCell id="qx2Xlpg36AhPsff7omIO-8" value="" style="endArrow=classic;html=1;entryX=0.826;entryY=-0.037;entryDx=0;entryDy=0;entryPerimeter=0;exitX=0.444;exitY=1.043;exitDx=0;exitDy=0;exitPerimeter=0;fontSize=20;" edge="1" parent="1" source="qx2Xlpg36AhPsff7omIO-4" target="qx2Xlpg36AhPsff7omIO-2">
          <mxGeometry width="50" height="50" relative="1" as="geometry">
            <mxPoint x="440" y="480" as="sourcePoint" />
            <mxPoint x="490" y="430" as="targetPoint" />
          </mxGeometry>
        </mxCell>
        <mxCell id="qx2Xlpg36AhPsff7omIO-9" value="" style="shape=singleArrow;whiteSpace=wrap;html=1;fontSize=20;" vertex="1" parent="1">
          <mxGeometry x="650" y="300" width="100" height="60" as="geometry" />
        </mxCell>
        <mxCell id="qx2Xlpg36AhPsff7omIO-10" value="H5调用Native&lt;br style=&quot;font-size: 20px&quot;&gt;&lt;font style=&quot;font-size: 17px&quot;&gt;原生将webviewjavascriptbridg绑定到window上&lt;br&gt;H5直接调用此对象中的原生接收方法&lt;/font&gt;&lt;br&gt;" style="rounded=0;whiteSpace=wrap;html=1;fontSize=20;" vertex="1" parent="1">
          <mxGeometry x="730" y="150" width="360" height="100" as="geometry" />
        </mxCell>
        <mxCell id="qx2Xlpg36AhPsff7omIO-11" value="Native调用H5&lt;br&gt;&lt;font style=&quot;font-size: 17px&quot;&gt;H5将jsbridge绑定在window上&lt;br&gt;native通过原生的方法调用此对象的H5接收方法&lt;/font&gt;" style="rounded=0;whiteSpace=wrap;html=1;fontSize=20;" vertex="1" parent="1">
          <mxGeometry x="730" y="430" width="360" height="100" as="geometry" />
        </mxCell>
      </root>
    </mxGraphModel>
  </diagram>
</mxfile>
